<svg xmlns="http://www.w3.org/2000/svg" xml:space="preserve" width="576" height="576" viewBox="-25 -25 202.4 202.4"><defs><filter id="b" width="1" height="1" x="0" y="0" style="color-interpolation-filters:sRGB"><feComposite in2="SourceGraphic" k2="1" operator="arithmetic" result="composite1"/><feColorMatrix in="composite1" result="colormatrix1" type="saturate" values="1"/><feFlood flood-color="#FFF" flood-opacity="1" result="flood1"/><feBlend in="flood1" in2="colormatrix1" mode="multiply" result="blend1"/><feBlend in2="blend1" mode="screen" result="blend2"/><feColorMatrix in="blend2" result="colormatrix2" type="saturate" values="1"/><feComposite in="colormatrix2" in2="SourceGraphic" operator="in" result="composite2"/></filter></defs><path d="M28.84 148.431v-76.2h40.569l-.009 7.85-.009 7.849-3.4 2.058c-3.59 2.174-3.606 2.176-6.46 1.112-2.47-.922-7.05-.602-9.66.675-2.584 1.264-5.17 3.856-6.442 6.457-.895 1.829-1 2.418-1.004 5.578-.003 3.282.079 3.7 1.152 5.882 2.953 6.004 9.718 8.999 15.856 7.018 7.041-2.271 10.953-9.214 9.136-16.216l-.487-1.878 1.105-.661c.607-.364 2.77-1.666 4.808-2.893L77.7 92.83l.094-10.3.093-10.299h22.92v14.452l-1.794.91c-4.977 2.522-7.963 8.375-7 13.72.789 4.374 3.678 8.147 7.674 10.02 1.728.81 2.462.939 5.354.939s3.626-.13 5.353-.939c10.01-4.693 10.412-18.806.675-23.74l-1.795-.91V72.231h22.92l.093 10.301.094 10.302 4.813 2.938 4.813 2.938-.52 1.666c-.8 2.57-.417 6.355.922 9.073 1.31 2.66 3.892 5.17 6.652 6.463 1.745.818 2.469.945 5.368.944 2.988 0 3.58-.113 5.46-1.034 2.69-1.316 5.258-3.883 6.469-6.466.831-1.774.948-2.459.948-5.559 0-3.283-.083-3.702-1.16-5.89-2.93-5.952-9.757-8.747-16.204-6.633l-2.4.787-3.436-2.064-3.435-2.064V72.232h40.57v152.4h-40.57l.01-7.85.01-7.85 3.23-1.94c1.776-1.067 3.433-1.99 3.681-2.052.25-.061 1.407.237 2.574.662 3.03 1.105 7.187.878 10.108-.55 2.652-1.299 5.021-3.674 6.338-6.354.947-1.93 1.037-2.432 1.037-5.817 0-3.469-.07-3.839-1.11-5.826-3.108-5.943-9.724-8.829-15.869-6.922-6.97 2.164-11.13 9.503-9.137 16.124.285.949.394 1.85.24 2.003-.152.152-2.33 1.524-4.84 3.048l-4.562 2.77-.094 10.277-.093 10.276h-22.92v-5.504l1.609-.781c5.083-2.47 8.185-8.45 7.2-13.883-.813-4.48-3.5-7.956-7.68-9.929-2.075-.98-2.73-1.116-5.362-1.116-2.614 0-3.293.14-5.293 1.083-2.809 1.327-5.268 3.719-6.59 6.41-.9 1.832-.994 2.377-.991 5.729.002 3.373.09 3.872.992 5.588 1.36 2.59 3.424 4.729 5.717 5.927l1.93 1.008v2.734l.001 2.734h-22.93v-11.56l-4.851-2.923-4.926-2.968c-.041-.024.17-.83.469-1.792 1.36-4.367-.267-9.81-3.931-13.16-2.67-2.44-5.147-3.372-8.986-3.383-2.623-.007-3.286.128-5.292 1.075-2.773 1.309-5.3 3.776-6.62 6.464-.865 1.763-.965 2.347-.965 5.67 0 3.379.087 3.869.993 5.588 2.092 3.972 5.707 6.671 9.965 7.439 2.333.42 4.616.14 7.162-.878l1.476-.59 3.431 2.097 3.432 2.098.1 3.411.102 3.412H28.84Zm77.328 4.763c10.755-15.522 19.665-28.408 19.8-28.635.154-.26-.992-1.275-3.085-2.734-1.832-1.277-3.411-2.322-3.51-2.322-.143 0-39.029 55.995-39.816 57.334-.255.434 6.476 5.216 6.816 4.842.132-.145 9.04-12.963 19.795-28.485m-45.14 2.908c-4.316-4.32-7.847-8.01-7.847-8.2 0-.192 4.245-4.594 9.432-9.784l9.432-9.437-2.99-3.004-2.988-3.005-12.616 12.613-12.617 12.613 11.022 11.026 11.022 11.026 2.998-2.998 2.998-2.998zm97.139 2.655 11.089-10.84-12.615-12.62-12.615-12.618-2.998 2.998-2.999 2.999 9.52 9.525 9.52 9.524-8.023 8.029-8.023 8.029 2.908 2.907c1.599 1.6 2.961 2.908 3.027 2.908s5.11-4.878 11.209-10.84" style="display:inline;fill:#fff;fill-opacity:1;filter:url(#b)" transform="translate(-28.84 -72.231)"/></svg>